<?xml version="1.0" encoding="UTF-8" standalone="no"?>
<svg width="720px" height="362px" viewBox="0 0 720 362" version="1.1" xmlns="http://www.w3.org/2000/svg" xmlns:xlink="http://www.w3.org/1999/xlink" xmlns:sketch="http://www.bohemiancoding.com/sketch/ns">
    <!-- Generator: Sketch 3.3.2 (12043) - http://www.bohemiancoding.com/sketch -->
    <title>login_head</title>
    <desc>Created with Sketch.</desc>
    <defs>
        <filter x="-50%" y="-50%" width="200%" height="200%" filterUnits="objectBoundingBox" id="filter-1">
            <feOffset dx="0" dy="5" in="SourceAlpha" result="shadowOffsetOuter1"></feOffset>
            <feGaussianBlur stdDeviation="13" in="shadowOffsetOuter1" result="shadowBlurOuter1"></feGaussianBlur>
            <feColorMatrix values="0 0 0 0 0.802800808   0 0 0 0 0.800425095   0 0 0 0 0.800425095  0 0 0 0.35 0" in="shadowBlurOuter1" type="matrix" result="shadowMatrixOuter1"></feColorMatrix>
            <feMerge>
                <feMergeNode in="shadowMatrixOuter1"></feMergeNode>
                <feMergeNode in="SourceGraphic"></feMergeNode>
            </feMerge>
        </filter>
        <path id="path-2" d="M0.52093254,32.9156746 C0.52093254,14.871627 15.1492063,0.236507937 33.2000992,0.236507937 L107.785813,0.236507937 C125.836706,0.236507937 140.46498,14.871627 140.46498,32.9156746 L140.46498,107.508234 C140.46498,125.552282 125.836706,140.187401 107.785813,140.187401 L33.2000992,140.187401 C15.1492063,140.187401 0.52093254,125.552282 0.52093254,107.508234 L0.52093254,32.9156746 L0.52093254,32.9156746 Z"></path>
        <path id="path-4" d="M140.853869,37.5161616 L116.936607,37.7919643 L104.567262,19.0839286 L87.810119,46.5401786 L69.6770833,0.218452381 L50.1818452,57.2872024 L29.4202381,20.1244048 L17.6395833,36.977381 L0.909821429,37.1386317 L0.909821429,47.0436465 L18.7622024,47.039881 L28.5577381,34.6363095 L51.3181548,76.4675595 L70.327381,21.7535714 L86.947619,62.9345238 L104.902679,32.3705357 L115.033631,47.3068452 L140.853869,47.3068452 L140.853869,37.5161616 L140.853869,37.5161616 Z"></path>
        <path d="M30.7065476,21.7997024 C31.2883929,20.4991071 31.8770833,19.0821429 32.4589286,17.5556548 C33.2255952,15.5363095 33.9854167,13.421131 34.7520833,11.2169643 C35.6488095,8.52678571 36.5044643,5.76130952 37.3122024,2.93422619 C37.8529762,0.99702381 38.9755952,0.0318452381 40.6800595,0.0318452381 C42.9252976,0.0318452381 44.0479167,1.15446429 44.0479167,3.39970238 C44.0479167,3.71458333 43.8973214,4.25535714 43.5824405,5.02202381 C43.3497024,5.55595238 42.9526786,6.37053571 42.3639881,7.4452381 L37.3806548,17.3571429 C35.9842262,20.0473214 34.8889881,22.0940476 34.0744048,23.483631 C38.1199405,23.16875 42.0285714,22.8127976 45.8002976,22.4089286 C47.3747024,22.2720238 49.0175595,22.0940476 50.7220238,21.8681548 L55.239881,21.327381 C53.8434524,17.9184524 52.0020833,14.4547619 49.7089286,10.95 L49.3050595,10.0053571 C49.3050595,9.15654762 49.7363095,8.72529762 50.5919643,8.72529762 L51.5982143,9.33452381 C52.05,9.69047619 52.5839286,10.23125 53.2205357,10.95 C54.4732143,12.2985119 55.8491071,14.0029762 57.3276786,16.0702381 C58.8130952,18.1443452 60.0452381,20.00625 61.0377976,21.6696429 C62.1125,23.5110119 62.6532738,24.7636905 62.6532738,25.441369 C62.6532738,27.3306548 61.708631,28.2684524 59.8193452,28.2684524 C58.5598214,28.2684524 57.3755952,26.8104167 56.2529762,23.8943452 C52.7482143,24.5172619 49.4693452,25.0785714 46.4095238,25.5782738 L37.3806548,27.1252976 L30.371131,28.2068452 C28.4407738,28.4738095 27.2497024,28.6107143 26.7979167,28.6107143 C25.3125,28.6107143 24.5732143,27.8919643 24.5732143,26.4544643 C24.5732143,25.0169643 26.3255952,24.1407738 29.8303571,23.8258929 L30.7065476,21.7997024 L30.7065476,21.7997024 Z M54.0967262,39.6657738 C54.0967262,37.8654762 53.8434524,36.6949405 53.3505952,36.1610119 C52.8166667,35.6202381 51.6255952,35.3464286 49.7842262,35.3464286 L38.4553571,35.3464286 C36.6139881,35.3464286 35.4502976,35.5928571 34.9505952,36.0925595 C34.4166667,36.6264881 34.1428571,37.8175595 34.1428571,39.6657738 L34.1428571,52.3979167 C34.1428571,54.1982143 34.3892857,55.3619048 34.8889881,55.9026786 C35.4229167,56.491369 36.6139881,56.778869 38.4553571,56.778869 L49.7842262,56.778869 C51.5776786,56.778869 52.7482143,56.5119048 53.2821429,55.971131 C53.8229167,55.4303571 54.0967262,54.246131 54.0967262,52.3979167 L54.0967262,39.6657738 L54.0967262,39.6657738 Z M59.4154762,52.8702381 C59.4154762,55.341369 58.9020833,57.0252976 57.8684524,57.928869 C56.8758929,58.7776786 54.9729167,59.2089286 52.1389881,59.2089286 L36.1005952,59.2089286 C33.1297619,59.2089286 31.1583333,58.7160714 30.1657738,57.7235119 C29.2690476,56.8747024 28.8172619,55.252381 28.8172619,52.8702381 L28.8172619,39.1934524 C28.8172619,36.7223214 29.3375,35.0589286 30.371131,34.2032738 C31.3568452,33.347619 33.2666667,32.9232143 36.1005952,32.9232143 L52.1389881,32.9232143 C55.0619048,32.9232143 57.0401786,33.3955357 58.0669643,34.3401786 C58.9705357,35.1889881 59.4154762,36.8113095 59.4154762,39.1934524 L59.4154762,52.8702381 L59.4154762,52.8702381 Z M18.9122024,17.6925595 L18.9122024,7.78065476 C18.9122024,6.21309524 18.7068452,5.17946429 18.3029762,4.6797619 C17.810119,4.14583333 16.7354167,3.87202381 15.0720238,3.87202381 L13.1827381,3.87202381 C11.5672619,3.87202381 10.5130952,4.11845238 10.0133929,4.61815476 C9.56845238,5.1110119 9.34255952,6.16517857 9.34255952,7.78065476 L9.34255952,17.6925595 L18.9122024,17.6925595 L18.9122024,17.6925595 Z M9.34255952,34.4017857 L18.9122024,34.4017857 L18.9122024,20.0473214 L9.34255952,20.0473214 L9.34255952,34.4017857 Z M9.20565476,36.8318452 C9.11666667,38.9401786 8.95922619,40.966369 8.73333333,42.8967262 C8.46636905,45.0529762 8.08303571,47.0517857 7.59017857,48.8931548 C6.50863095,53.2056548 4.91369048,56.6214286 2.80535714,59.1404762 L1.65535714,59.8113095 C0.847619048,59.8113095 0.44375,59.4074405 0.44375,58.5997024 L0.580654762,57.928869 L0.916071429,57.3196429 C1.90178571,55.3892857 2.64791667,53.0550595 3.14077381,50.310119 C3.77053571,46.9833333 4.08541667,42.8282738 4.08541667,37.8449405 L4.08541667,6.97291667 C4.08541667,4.95357143 4.48928571,3.53660714 5.29702381,2.72886905 C6.19375,1.87321429 7.90505952,1.44880952 10.4172619,1.44880952 L17.6321429,1.44880952 C20.2401786,1.44880952 21.9925595,1.92113095 22.8892857,2.86577381 C23.6080357,3.62559524 23.9639881,4.99464286 23.9639881,6.97291667 L23.9639881,54.8279762 C23.9639881,56.6214286 23.7175595,57.8809524 23.2247024,58.5997024 C22.3690476,59.7702381 20.6166667,60.3520833 17.9675595,60.3520833 L11.4303571,60.3520833 C10.4446429,60.3520833 9.95178571,59.9482143 9.95178571,59.1404762 L10.4857143,58.127381 L11.0264881,57.9973214 L11.4303571,57.928869 L15.0720238,57.928869 C16.7354167,57.928869 17.810119,57.6550595 18.3029762,57.1142857 C18.7068452,56.6693452 18.9122024,55.65625 18.9122024,54.0818452 L18.9122024,36.8318452 L9.20565476,36.8318452 L9.20565476,36.8318452 Z" id="path-6"></path>
    </defs>
    <g id="Page-1" stroke="none" stroke-width="1" fill="none" fill-rule="evenodd" sketch:type="MSPage">
        <g id="登录" sketch:type="MSArtboardGroup" transform="translate(0.000000, -39.000000)">
            <g id="login_head" sketch:type="MSLayerGroup" transform="translate(0.000000, 39.000000)">
                <rect id="Rectangle-8" fill="#01CF97" sketch:type="MSShapeGroup" x="0" y="0" width="720" height="362"></rect>
                <text id="微胎心" sketch:type="MSTextLayer" font-family="Hiragino Sans GB" font-size="40" font-weight="313" fill="#FFFFFF">
                    <tspan x="300" y="308">微胎心</tspan>
                </text>
                <polygon id="Triangle-1" fill="#FFFFFF" sketch:type="MSShapeGroup" points="364.5 343 381 362 348 362 "></polygon>
                <g id="Imported-Layers" transform="translate(289.000000, 109.960000)">
                    <g id="Group-3" transform="translate(0.388889, 1.000000)">
                        <mask id="mask-3" sketch:name="Clip 2" fill="white">
                            <use xlink:href="#path-2"></use>
                        </mask>
                        <use id="Clip-2" stroke="#34E2B3" stroke-width="15" filter="url(#filter-1)" sketch:type="MSShapeGroup" xlink:href="#path-2"></use>
                        <path d="M-0.156746032,0.126984127 L141.128968,0.126984127 L141.128968,140.59127 L-0.156746032,140.59127 L-0.156746032,0.126984127 Z" id="Fill-1" fill="#FFFFFF" sketch:type="MSShapeGroup" mask="url(#mask-3)"></path>
                    </g>
                    <g id="Group-12" transform="translate(0.000000, 28.686508)">
                        <mask id="mask-5" sketch:name="Clip 11" fill="white">
                            <use xlink:href="#path-4"></use>
                        </mask>
                        <use id="Clip-11" fill="#FFFFFF" sketch:type="MSShapeGroup" xlink:href="#path-4"></use>
                        <path d="M0.232142857,-0.452380952 L141.517857,-0.452380952 L141.517857,76.7619048 L0.232142857,76.7619048 L0.232142857,-0.452380952 Z" id="Fill-10" fill="#FCF3F4" sketch:type="MSShapeGroup" mask="url(#mask-5)"></path>
                    </g>
                    <g id="Group-15" transform="translate(42.071429, 38.531746)">
                        <mask id="mask-7" sketch:name="Clip 14" fill="white">
                            <use xlink:href="#path-6"></use>
                        </mask>
                        <g id="Clip-14"></g>
                        <path d="M0.44375,0.0318452381 L62.6532738,0.0318452381 L62.6532738,60.3520833 L0.44375,60.3520833 L0.44375,0.0318452381 Z" id="Fill-13" fill="#01CF97" sketch:type="MSShapeGroup" mask="url(#mask-7)"></path>
                    </g>
                    <path d="M119.175,75.9933532 L117.155655,75.9933532 C116.779167,76.5272817 116.3,77.0885913 115.704464,77.6704365 L115.690774,78.8820437 L116.902381,78.8957341 C117.908631,77.9168651 118.647917,76.9448413 119.175,75.9933532 M116.827083,65.581746 L116.382143,65.6365079 L116.936607,66.4784722 L117.764881,66.471627 C117.244643,65.9103175 116.847619,65.6022817 116.827083,65.581746" id="Fill-16" fill="#01CF97" sketch:type="MSShapeGroup"></path>
                    <path d="M116.382143,65.6365079 L115.629167,65.725496 L115.772917,66.9302579 L116.183631,67.2930556 C116.970833,68.0597222 118.511012,69.9147817 118.490476,72.2010913 C118.490476,73.3100198 118.161905,74.5763889 117.155655,75.9933532 L119.175,75.9933532 C119.900595,74.6722222 120.208631,73.3853175 120.201786,72.2010913 C120.174405,69.5246032 118.750595,67.5394841 117.764881,66.471627 L116.936607,66.4784722 L116.382143,65.6365079" id="Fill-17" fill="#01CF97" sketch:type="MSShapeGroup"></path>
                    <path d="M109.468452,69.7915675 L108.26369,69.9353175 L108.40744,71.1332341 L108.496429,71.215377 L109.085119,72.4201389 C109.078274,72.7555556 108.96875,73.1868056 108.338988,73.8097222 L108.325298,75.0213294 L109.536905,75.0350198 C110.40625,74.1930556 110.803274,73.2621032 110.789583,72.4201389 C110.748512,70.7293651 109.516369,69.8600198 109.468452,69.7915675" id="Fill-18" fill="#01CF97" sketch:type="MSShapeGroup"></path>
                    <path d="M28.8863095,66.5674603 C26.4767857,68.9016865 25.5732143,71.2290675 25.5800595,73.2621032 C25.621131,77.3418651 28.9,79.8198413 28.9547619,79.8882937 L30.1595238,79.7376984 L30.0089286,78.5397817 L29.6050595,78.1701389 C28.8178571,77.4103175 27.2776786,75.5484127 27.291369,73.2621032 C27.2982143,71.7356151 27.9142857,69.9079365 30.077381,67.7996032 L30.0979167,66.587996 L28.8863095,66.5674603" id="Fill-21" fill="#01CF97" sketch:type="MSShapeGroup"></path>
                    <path d="M36.258631,70.4350198 C35.3755952,71.2701389 34.9854167,72.2079365 34.9922619,73.0430556 C35.0333333,74.7338294 36.2723214,75.6100198 36.3202381,75.6784722 L37.525,75.527877 L37.38125,74.3299603 L37.2922619,74.2478175 L36.7035714,73.0430556 C36.7104167,72.7144841 36.8199405,72.2832341 37.4497024,71.6603175 L37.4633929,70.4487103 L36.258631,70.4350198" id="Fill-22" fill="#01CF97" sketch:type="MSShapeGroup"></path>
                    <path d="M18.3925595,75.7263889 L16.653869,75.7263889 C17.7627976,81.5243056 22.403869,85.0906746 22.458631,85.1522817 L23.6565476,85.0016865 L23.5127976,83.8037698 L23.5059524,83.8037698 L22.6845238,83.0576389 C21.425,81.8323413 19.1592262,79.1900794 18.3925595,75.7263889" id="Fill-23" fill="#01CF97" sketch:type="MSShapeGroup"></path>
                    <path d="M22.3833333,61.3103175 C17.975,65.581746 16.4074405,69.7299603 16.4142857,73.3237103 C16.421131,74.1588294 16.5032738,74.9665675 16.653869,75.7263889 L18.3925595,75.7263889 C18.2214286,74.9665675 18.1255952,74.1588294 18.1255952,73.3237103 C18.1324405,70.2365079 19.4193452,66.5948413 23.58125,62.5356151 L23.5949405,61.3240079 L22.3833333,61.3103175" id="Fill-24" fill="#01CF97" sketch:type="MSShapeGroup"></path>
                    <path d="M128.778869,75.9933532 L126.978571,75.9933532 C126.21875,78.1290675 124.747024,80.4564484 122.20744,82.9275794 L122.19375,84.1391865 L123.398512,84.1597222 C126.307738,81.3394841 127.977976,78.5808532 128.778869,75.9933532 M123.33006,60.3177579 L122.132143,60.4615079 L122.275893,61.6662698 L123.097321,62.4055556 C123.911905,63.1927579 125.137202,64.5686508 126.116071,66.3757937 L128.025893,66.3552579 C126.252976,62.5835317 123.371131,60.3656746 123.33006,60.3177579" id="Fill-19" fill="#01CF97" sketch:type="MSShapeGroup"></path>
                    <path d="M128.025893,66.3552579 L126.116071,66.3757937 C126.992262,67.9912698 127.66994,69.9558532 127.663095,72.1463294 C127.65625,73.344246 127.457738,74.6311508 126.978571,75.9933532 L128.778869,75.9933532 C129.189583,74.6585317 129.374405,73.371627 129.374405,72.1463294 C129.360714,69.9490079 128.799405,68.0049603 128.025893,66.3552579" id="Fill-20" fill="#01CF97" sketch:type="MSShapeGroup"></path>
                </g>
            </g>
        </g>
    </g>
</svg>